<?xml version="1.0" encoding="UTF-8" standalone="no"?>
<!-- Generator: Adobe Illustrator 12.0.0, SVG Export Plug-In . SVG Version: 6.00 Build 51448)  -->
<svg
   xmlns:dc="http://purl.org/dc/elements/1.1/"
   xmlns:cc="http://web.resource.org/cc/"
   xmlns:rdf="http://www.w3.org/1999/02/22-rdf-syntax-ns#"
   xmlns:svg="http://www.w3.org/2000/svg"
   xmlns="http://www.w3.org/2000/svg"
   xmlns:sodipodi="http://sodipodi.sourceforge.net/DTD/sodipodi-0.dtd"
   xmlns:inkscape="http://www.inkscape.org/namespaces/inkscape"
   version="1.1"
   id="Layer_1"
   width="492"
   height="327.326"
   viewBox="0 0 492 327.326"
   overflow="visible"
   enable-background="new 0 0 492 327.326"
   xml:space="preserve"
   sodipodi:version="0.32"
   inkscape:version="0.44.1"
   sodipodi:docname="exempledevs2.svg"
   sodipodi:docbase="/home/quesnel/these/these/soutenance/figures-src"><metadata
   id="metadata276"><rdf:RDF><cc:Work
       rdf:about=""><dc:format>image/svg+xml</dc:format><dc:type
         rdf:resource="http://purl.org/dc/dcmitype/StillImage" /></cc:Work></rdf:RDF></metadata><defs
   id="defs274" /><sodipodi:namedview
   inkscape:window-height="1000"
   inkscape:window-width="1293"
   inkscape:pageshadow="2"
   inkscape:pageopacity="0.0"
   guidetolerance="10.0"
   gridtolerance="10.0"
   objecttolerance="10.0"
   borderopacity="1.0"
   bordercolor="#666666"
   pagecolor="#ffffff"
   id="base"
   inkscape:zoom="4.8902439"
   inkscape:cx="174.52686"
   inkscape:cy="14.49425"
   inkscape:window-x="1259"
   inkscape:window-y="0"
   inkscape:current-layer="Layer_1" />

<polyline
   fill="none"
   stroke="#000000"
   stroke-miterlimit="10"
   points="16.5,45.5 179.5,45.5 399.5,45.5 423.5,45.5 440.5,45.5   476.886,45.5 "
   id="polyline5" />

<polyline
   fill="none"
   stroke="#000000"
   stroke-miterlimit="10"
   points="43.5,306.5 43.5,72.5 43.5,26.114 "
   id="polyline9" />
<path
   fill="none"
   stroke="#000000"
   stroke-miterlimit="10"
   d="M41.357,26.114L43.5,20.4l2.143,5.714 M43.5,20.4v5.714"
   id="path11" />
<polyline
   fill="none"
   stroke="#000000"
   stroke-miterlimit="10"
   points="16.5,297.5 106.5,297.5 178.5,297.5 304.5,297.5   399.5,297.5 476.886,297.5 "
   id="polyline13" />
<path
   fill="none"
   stroke="#000000"
   stroke-miterlimit="10"
   d="M476.886,295.357l5.714,2.143l-5.714,2.143 M482.6,297.5h-5.714"
   id="path15" />
<text
   transform="matrix(1 0 0 1 14.5 19)"
   font-family="'Helvetica'"
   font-size="12"
   id="text17"
   style="font-family:URW Palladio L;font-weight:normal;font-style:normal;font-stretch:normal;font-variant:normal;font-size:12.00000041;text-anchor:start;text-align:start;writing-mode:lr;line-height:125%"
   sodipodi:linespacing="125%">X</text>






<text
   transform="matrix(1 0 0 1 22.5039 24)"
   font-family="'Helvetica'"
   font-size="12"
   id="text19"
   style="font-family:URW Palladio L;font-weight:normal;font-style:normal;font-stretch:normal;font-variant:normal;font-size:9.00000031;text-anchor:start;text-align:start;writing-mode:lr;line-height:125%"
   sodipodi:linespacing="125%">M</text>






<text
   transform="matrix(1 0 0 1 23.5 289)"
   font-family="'Helvetica'"
   font-size="12"
   id="text21"
   style="font-family:URW Palladio L;font-weight:normal;font-style:normal;font-stretch:normal;font-variant:normal;font-size:12.00000041;text-anchor:start;text-align:start;writing-mode:lr;line-height:125%"
   sodipodi:linespacing="125%">Y</text>






<text
   transform="matrix(1 0 0 1 31.5039 294)"
   font-family="'Helvetica'"
   font-size="12"
   id="text23"
   style="font-family:URW Palladio L;font-weight:normal;font-style:normal;font-stretch:normal;font-variant:normal;font-size:9.00000031;text-anchor:start;text-align:start;writing-mode:lr;line-height:125%"
   sodipodi:linespacing="125%">M</text>






<polyline
   fill="none"
   stroke="#000000"
   stroke-miterlimit="10"
   stroke-dasharray="1 4"
   points="16.5,81.5 44.5,81.5 106.5,81.5   484.5,81.5 "
   id="polyline25" />
<polyline
   fill="none"
   stroke="#000000"
   stroke-miterlimit="10"
   stroke-dasharray="1 4"
   points="16.5,117.5 107.5,117.5 178.5,117.5   305.5,117.5 401.5,117.5 439.5,117.5 484.5,117.5 "
   id="polyline27" />
<polyline
   fill="none"
   stroke="#000000"
   stroke-miterlimit="10"
   stroke-dasharray="1 4"
   points="16.5,153.5 205.5,153.5 405.5,153.5   440.5,153.5 484.5,153.5 "
   id="polyline29" />
<polyline
   fill="none"
   stroke="#000000"
   stroke-miterlimit="10"
   stroke-dasharray="1 4"
   points="16.5,189.5 179.5,189.5 304.5,189.5   484.5,189.5 "
   id="polyline31" />
<line
   fill="none"
   stroke="#000000"
   stroke-miterlimit="10"
   stroke-dasharray="1 4"
   x1="16.5"
   y1="225.5"
   x2="484.5"
   y2="225.5"
   id="line33" />














<line
   fill="none"
   stroke="#000000"
   stroke-width="2"
   stroke-miterlimit="10"
   x1="44.5"
   y1="81.5"
   x2="106.5"
   y2="81.5"
   id="line51" />
<path
   style="fill:red;stroke:red;stroke-width:2;stroke-miterlimit:10;fill-opacity:1;stroke-opacity:1"
   d="M 107.5,117.5 L 204.60379,117.5"
   id="line53"
   sodipodi:nodetypes="cc" />




<polyline
   fill="none"
   stroke="#000000"
   stroke-miterlimit="10"
   stroke-dasharray="4 4"
   points="106.5,81.5 107.278,109.506   107.289,109.889 "
   id="polyline63" />
<path
   fill="none"
   stroke="#000000"
   stroke-miterlimit="10"
   d="M109.431,109.829l-1.983,5.771l-2.301-5.652 M107.447,115.601  l-0.159-5.712"
   id="path65"
   style="fill:black;fill-opacity:1" />






<line
   fill="none"
   stroke="#000000"
   stroke-miterlimit="10"
   stroke-dasharray="4 4"
   x1="114.32"
   y1="109.434"
   x2="197.886"
   y2="108.578"
   id="line79"
   style="fill:red;fill-opacity:1;stroke:red;stroke-opacity:1" />
<path
   fill="none"
   stroke="#000000"
   stroke-miterlimit="10"
   d="M203.6,108.52 M203.6,108.52l-5.736-2.084l0.044,4.286L203.6,108.52z"
   id="path81"
   style="fill:red;fill-opacity:1;stroke:red;stroke-opacity:1" />
<path
   fill="none"
   stroke="#000000"
   stroke-miterlimit="10"
   d="M109.178,109.486 M109.178,109.486l5.163,1.876l-0.04-3.857  L109.178,109.486z"
   id="path83"
   style="fill:red;fill-opacity:1;stroke:red;stroke-opacity:1" />
<line
   fill="none"
   stroke="#000000"
   stroke-miterlimit="10"
   stroke-dasharray="4 4"
   x1="50.543"
   y1="72.5"
   x2="98.886"
   y2="72.5"
   id="line85" />
<path
   fill="none"
   stroke="#000000"
   stroke-miterlimit="10"
   d="M104.6,72.5 M104.6,72.5l-5.714-2.143v4.286L104.6,72.5z"
   id="path87" />
<path
   fill="none"
   stroke="#000000"
   stroke-miterlimit="10"
   d="M45.4,72.5 M45.4,72.5l5.143,1.929v-3.857L45.4,72.5z"
   id="path89" />






<text
   transform="matrix(1 0 0 1 64.6631 67)"
   font-family="'Helvetica'"
   font-size="12"
   id="text103"
   style="font-family:URW Palladio L;font-weight:normal;font-style:normal;font-stretch:normal;font-variant:normal;font-size:12.00000041;text-anchor:start;text-align:start;writing-mode:lr;line-height:125%"
   sodipodi:linespacing="125%">ta(s</text>






<text
   font-size="12"
   id="text105"
   style="font-size:9px;font-style:normal;font-variant:normal;font-weight:normal;font-stretch:normal;text-align:start;line-height:125%;writing-mode:lr-tb;text-anchor:start;font-family:URW Palladio L"
   sodipodi:linespacing="125%"
   x="83.402061"
   y="70.081673">0</text>






<text
   font-size="12"
   id="text107"
   style="font-size:12px;font-style:normal;font-variant:normal;font-weight:normal;font-stretch:normal;text-align:start;line-height:125%;writing-mode:lr-tb;text-anchor:start;font-family:URW Palladio L"
   sodipodi:linespacing="125%"
   x="87.912514"
   y="67">)</text>






<text
   transform="matrix(1 0 0 1 145.6631 103)"
   font-family="'Helvetica'"
   font-size="12"
   id="text109"
   style="font-family:URW Palladio L;font-weight:normal;font-style:normal;font-stretch:normal;font-variant:normal;font-size:12.00000041;text-anchor:start;text-align:start;writing-mode:lr;line-height:125%;fill:red;fill-opacity:1"
   sodipodi:linespacing="125%">ta(s</text>






<text
   font-size="12"
   id="text111"
   style="font-size:9px;font-style:normal;font-variant:normal;font-weight:normal;font-stretch:normal;text-align:start;line-height:125%;writing-mode:lr-tb;text-anchor:start;font-family:URW Palladio L;fill:red;fill-opacity:1"
   sodipodi:linespacing="125%"
   x="165.66701"
   y="106">1</text>






<text
   font-size="12"
   id="text113"
   style="font-size:12px;font-style:normal;font-variant:normal;font-weight:normal;font-stretch:normal;text-align:start;line-height:125%;writing-mode:lr-tb;text-anchor:start;font-family:URW Palladio L;fill:red;fill-opacity:1"
   sodipodi:linespacing="125%"
   x="170.34081"
   y="103">)</text>


















<text
   transform="matrix(1 0 0 1 9.6631 73)"
   font-family="'Helvetica'"
   font-size="12"
   id="text121"
   style="font-family:URW Palladio L;font-weight:normal;font-style:normal;font-stretch:normal;font-variant:normal;font-size:10.00000034;text-anchor:start;text-align:start;writing-mode:lr;line-height:125%"
   sodipodi:linespacing="125%">s</text>






<text
   font-size="12"
   id="text123"
   style="font-size:8px;font-style:normal;font-variant:normal;font-weight:normal;font-stretch:normal;text-align:start;line-height:125%;writing-mode:lr-tb;text-anchor:start;font-family:URW Palladio L"
   sodipodi:linespacing="125%"
   x="13.6631"
   y="76">0</text>






<text
   transform="matrix(1 0 0 1 9.6631 109)"
   font-family="'Helvetica'"
   font-size="12"
   id="text125"
   style="font-family:URW Palladio L;font-weight:normal;font-style:normal;font-stretch:normal;font-variant:normal;font-size:10.00000034;text-anchor:start;text-align:start;writing-mode:lr;line-height:125%"
   sodipodi:linespacing="125%">s</text>






<text
   font-size="12"
   id="text127"
   style="font-size:8px;font-style:normal;font-variant:normal;font-weight:normal;font-stretch:normal;text-align:start;line-height:125%;writing-mode:lr-tb;text-anchor:start;font-family:URW Palladio L"
   sodipodi:linespacing="125%"
   x="13.6631"
   y="112">1</text>






<text
   transform="matrix(1 0 0 1 9.6631 145)"
   font-family="'Helvetica'"
   font-size="12"
   id="text129"
   style="font-family:URW Palladio L;font-weight:normal;font-style:normal;font-stretch:normal;font-variant:normal;font-size:10.00000034;text-anchor:start;text-align:start;writing-mode:lr;line-height:125%"
   sodipodi:linespacing="125%">s</text>






<text
   font-size="12"
   id="text131"
   style="font-size:8px;font-style:normal;font-variant:normal;font-weight:normal;font-stretch:normal;text-align:start;line-height:125%;writing-mode:lr-tb;text-anchor:start;font-family:URW Palladio L"
   sodipodi:linespacing="125%"
   x="13.6631"
   y="148">2</text>






<text
   transform="matrix(1 0 0 1 9.6631 181)"
   font-family="'Helvetica'"
   font-size="12"
   id="text133"
   style="font-family:URW Palladio L;font-weight:normal;font-style:normal;font-stretch:normal;font-variant:normal;font-size:10.00000034;text-anchor:start;text-align:start;writing-mode:lr;line-height:125%"
   sodipodi:linespacing="125%">s</text>






<text
   font-size="12"
   id="text135"
   style="font-size:8px;font-style:normal;font-variant:normal;font-weight:normal;font-stretch:normal;text-align:start;line-height:125%;writing-mode:lr-tb;text-anchor:start;font-family:URW Palladio L"
   sodipodi:linespacing="125%"
   x="13.6631"
   y="184">3</text>






<text
   transform="matrix(1 0 0 1 9.6631 217)"
   font-family="'Helvetica'"
   font-size="12"
   id="text137"
   style="font-family:URW Palladio L;font-weight:normal;font-style:normal;font-stretch:normal;font-variant:normal;font-size:10.00000034;text-anchor:start;text-align:start;writing-mode:lr;line-height:125%"
   sodipodi:linespacing="125%">s</text>






<text
   font-size="12"
   id="text139"
   style="font-size:8px;font-style:normal;font-variant:normal;font-weight:normal;font-stretch:normal;text-align:start;line-height:125%;writing-mode:lr-tb;text-anchor:start;font-family:URW Palladio L"
   sodipodi:linespacing="125%"
   x="13.6631"
   y="220">4</text>


















<path
   d="M127.354,55.641c-0.137-0.094-0.225-0.152-0.264-0.176l-0.598-0.381c-0.75-0.48-1.125-0.951-1.125-1.412  c0-0.5,0.248-0.887,0.744-1.16s1.201-0.41,2.115-0.41c0.375,0,0.828,0.045,1.359,0.135c0.051,0.008,0.127,0.02,0.229,0.035v0.961  c-0.633-0.176-1.232-0.264-1.799-0.264c-0.445,0-0.808,0.056-1.087,0.167s-0.419,0.257-0.419,0.437c0,0.145,0.182,0.338,0.545,0.58  l0.586,0.393c0.039,0.027,0.221,0.139,0.545,0.334l0.551,0.34c0.797,0.484,1.363,0.977,1.699,1.477s0.504,1.102,0.504,1.805  c0,0.941-0.267,1.701-0.8,2.279s-1.233,0.867-2.101,0.867c-0.848,0-1.541-0.281-2.08-0.844s-0.809-1.287-0.809-2.174  c0-0.707,0.184-1.31,0.551-1.808S126.62,55.93,127.354,55.641z M128.245,56.18l-0.129,0.053c-0.578,0.242-1.012,0.564-1.301,0.967  s-0.434,0.885-0.434,1.447c0,0.629,0.158,1.142,0.475,1.538s0.725,0.595,1.225,0.595c0.473,0,0.861-0.206,1.166-0.618  s0.457-0.938,0.457-1.579c0-0.559-0.107-1.015-0.322-1.368S128.788,56.516,128.245,56.18z"
   id="path147" />
<text
   font-size="12"
   id="text149"
   style="font-size:9px;font-style:normal;font-variant:normal;font-weight:normal;font-stretch:normal;text-align:start;line-height:125%;writing-mode:lr-tb;text-anchor:start;font-family:URW Palladio L"
   sodipodi:linespacing="125%"
   x="131.58501"
   y="65.5">int</text>






<text
   font-size="12"
   id="text151"
   style="font-size:12px;font-style:normal;font-variant:normal;font-weight:normal;font-stretch:normal;text-align:start;line-height:125%;writing-mode:lr-tb;text-anchor:start;font-family:URW Palladio L"
   sodipodi:linespacing="125%"
   x="142.9893"
   y="61.5">(s</text>






<text
   font-size="12"
   id="text153"
   style="font-size:9px;font-style:normal;font-variant:normal;font-weight:normal;font-stretch:normal;text-align:start;line-height:125%;writing-mode:lr-tb;text-anchor:start;font-family:URW Palladio L"
   sodipodi:linespacing="125%"
   x="151.82553"
   y="65.173309">0</text>






<text
   font-size="12"
   id="text155"
   style="font-size:12px;font-style:normal;font-variant:normal;font-weight:normal;font-stretch:normal;text-align:start;line-height:125%;writing-mode:lr-tb;text-anchor:start;font-family:URW Palladio L"
   sodipodi:linespacing="125%"
   x="156.59669"
   y="61.5">)</text>






<line
   fill="none"
   stroke="#000000"
   stroke-miterlimit="10"
   x1="126.75"
   y1="69.5"
   x2="113.05"
   y2="77.618"
   id="line157" />
<path
   d="M108.135,80.531 M108.135,80.531l6.008-1.069l-2.185-3.687L108.135,80.531z"
   id="path159" />
<path
   fill="none"
   stroke="#000000"
   stroke-miterlimit="10"
   d="M108.135,80.531 M108.135,80.531l6.008-1.069l-2.185-3.687  L108.135,80.531z"
   id="path161" />

































































<polyline
   fill="none"
   stroke="#000000"
   stroke-miterlimit="10"
   stroke-dasharray="1 4"
   points="107.5,117.5 106.65,270.501   106.5,297.5 "
   id="polyline221" />

<text
   transform="matrix(1 0 0 1 49.9961 317)"
   font-family="'Helvetica'"
   font-size="12"
   id="text225"
   style="font-family:URW Palladio L;font-weight:normal;font-style:normal;font-stretch:normal;font-variant:normal;font-size:10.00000034;text-anchor:start;text-align:start;writing-mode:lr;line-height:125%"
   sodipodi:linespacing="125%">t</text>






<text
   font-size="12"
   id="text227"
   style="font-size:8px;font-style:normal;font-variant:normal;font-weight:normal;font-stretch:normal;text-align:start;line-height:125%;writing-mode:lr-tb;text-anchor:start;font-family:URW Palladio L"
   sodipodi:linespacing="125%"
   x="53.330101"
   y="320">0</text>






<text
   transform="matrix(1 0 0 1 103.9961 317)"
   font-family="'Helvetica'"
   font-size="12"
   id="text229"
   style="font-family:URW Palladio L;font-weight:normal;font-style:normal;font-stretch:normal;font-variant:normal;font-size:10.00000034;text-anchor:start;text-align:start;writing-mode:lr;line-height:125%"
   sodipodi:linespacing="125%">t</text>






<text
   font-size="12"
   id="text231"
   style="font-size:8px;font-style:normal;font-variant:normal;font-weight:normal;font-stretch:normal;text-align:start;line-height:125%;writing-mode:lr-tb;text-anchor:start;font-family:URW Palladio L"
   sodipodi:linespacing="125%"
   x="107.3301"
   y="320">1</text>






<text
   transform="matrix(1 0 0 1 175.9961 317)"
   font-family="'Helvetica'"
   font-size="12"
   id="text233"
   style="font-family:URW Palladio L;font-weight:normal;font-style:normal;font-stretch:normal;font-variant:normal;font-size:10.00000034;text-anchor:start;text-align:start;writing-mode:lr;line-height:125%"
   sodipodi:linespacing="125%">t</text>






<text
   font-size="12"
   id="text235"
   style="font-size:8px;font-style:normal;font-variant:normal;font-weight:normal;font-stretch:normal;text-align:start;line-height:125%;writing-mode:lr-tb;text-anchor:start;font-family:URW Palladio L"
   sodipodi:linespacing="125%"
   x="179.33009"
   y="320">2</text>






<text
   transform="matrix(1 0 0 1 301.9961 317)"
   font-family="'Helvetica'"
   font-size="12"
   id="text237"
   style="font-family:URW Palladio L;font-weight:normal;font-style:normal;font-stretch:normal;font-variant:normal;font-size:8.00000027;text-anchor:start;text-align:start;writing-mode:lr;line-height:125%"
   sodipodi:linespacing="125%">t</text>






<text
   font-size="12"
   id="text239"
   style="font-size:10px;font-style:normal;font-variant:normal;font-weight:normal;font-stretch:normal;text-align:start;line-height:125%;writing-mode:lr-tb;text-anchor:start;font-family:URW Palladio L"
   sodipodi:linespacing="125%"
   x="305.33011"
   y="320">3</text>














<line
   fill="none"
   stroke="#000000"
   stroke-miterlimit="10"
   x1="106.5"
   y1="297.5"
   x2="106.608"
   y2="278.115"
   id="line245" />
<path
   d="M106.64,272.401 M106.64,272.401l-2.175,5.702l4.286,0.023L106.64,272.401z"
   id="path247" />
<path
   fill="none"
   stroke="#000000"
   stroke-miterlimit="10"
   d="M106.64,272.401 M106.64,272.401l-2.175,5.702l4.286,0.023  L106.64,272.401z"
   id="path249" />



<path
   d="M121.668,272.729l-0.586-1.348c-0.191-0.441-0.391-0.738-0.598-0.891s-0.514-0.229-0.92-0.229h-0.17v-1.014h0.217  c0.754,0,1.292,0.113,1.614,0.34s0.651,0.727,0.987,1.5l2.086,4.758c0.395,0.898,0.854,1.783,1.377,2.654h-1.301  c-0.387-0.637-0.748-1.336-1.084-2.098l-1.084-2.449l-2.086,4.547h-1.113L121.668,272.729z"
   id="path257" />
<text
   transform="matrix(1 0 0 1 125.7402 278.5)"
   font-family="'LucidaGrande'"
   font-size="12"
   id="text259"
   style="font-family:URW Palladio L;font-weight:normal;font-style:normal;font-stretch:normal;font-variant:normal;font-size:12.00000041;text-anchor:start;text-align:start;writing-mode:lr;line-height:125%"
   sodipodi:linespacing="125%">(s</text>






<text
   font-size="12"
   id="text261"
   style="font-size:9px;font-style:normal;font-variant:normal;font-weight:normal;font-stretch:normal;text-align:start;line-height:125%;writing-mode:lr-tb;text-anchor:start;font-family:URW Palladio L"
   sodipodi:linespacing="125%"
   x="134.30785"
   y="282.39066">0</text>






<text
   font-size="12"
   id="text263"
   style="font-size:12px;font-style:normal;font-variant:normal;font-weight:normal;font-stretch:normal;text-align:start;line-height:125%;writing-mode:lr-tb;text-anchor:start;font-family:URW Palladio L"
   sodipodi:linespacing="125%"
   x="139.3535"
   y="278.5">)</text>



















</svg>