<?xml version="1.0" encoding="UTF-8" standalone="no"?>
<!-- Created with Inkscape (http://www.inkscape.org/) -->

<svg
   xmlns:dc="http://purl.org/dc/elements/1.1/"
   xmlns:cc="http://creativecommons.org/ns#"
   xmlns:rdf="http://www.w3.org/1999/02/22-rdf-syntax-ns#"
   xmlns:svg="http://www.w3.org/2000/svg"
   xmlns="http://www.w3.org/2000/svg"
   xmlns:sodipodi="http://sodipodi.sourceforge.net/DTD/sodipodi-0.dtd"
   xmlns:inkscape="http://www.inkscape.org/namespaces/inkscape"
   width="474.93234"
   height="393.08768"
   id="svg2"
   sodipodi:version="0.32"
   inkscape:version="0.48.3.1 r9886"
   sodipodi:docname="qss2.svg"
   inkscape:output_extension="org.inkscape.output.svg.inkscape"
   version="1.1">
  <defs
     id="defs4">
    <marker
       inkscape:stockid="Arrow2Mend"
       orient="auto"
       refY="0"
       refX="0"
       id="Arrow2Mend"
       style="overflow:visible">
      <path
         id="path3164"
         style="font-size:12px;fill-rule:evenodd;stroke-width:0.625;stroke-linejoin:round"
         d="M 8.7185878,4.0337352 -2.2072895,0.01601326 8.7185884,-4.0017078 c -1.7454984,2.3720609 -1.7354408,5.6174519 -6e-7,8.035443 z"
         transform="scale(-0.6,-0.6)"
         inkscape:connector-curvature="0" />
    </marker>
    <marker
       inkscape:stockid="Arrow1Send"
       orient="auto"
       refY="0"
       refX="0"
       id="Arrow1Send"
       style="overflow:visible">
      <path
         id="path3152"
         d="M 0,0 5,-5 -12.5,0 5,5 0,0 z"
         style="fill-rule:evenodd;stroke:#000000;stroke-width:1pt;marker-start:none"
         transform="matrix(-0.2,0,0,-0.2,-1.2,0)"
         inkscape:connector-curvature="0" />
    </marker>
    <marker
       inkscape:stockid="Arrow2Mstart"
       orient="auto"
       refY="0"
       refX="0"
       id="Arrow2Mstart"
       style="overflow:visible">
      <path
         id="path3161"
         style="font-size:12px;fill-rule:evenodd;stroke-width:0.625;stroke-linejoin:round"
         d="M 8.7185878,4.0337352 -2.2072895,0.01601326 8.7185884,-4.0017078 c -1.7454984,2.3720609 -1.7354408,5.6174519 -6e-7,8.035443 z"
         transform="scale(0.6,0.6)"
         inkscape:connector-curvature="0" />
    </marker>
    <marker
       inkscape:stockid="TriangleInL"
       orient="auto"
       refY="0"
       refX="0"
       id="TriangleInL"
       style="overflow:visible">
      <path
         id="path3226"
         d="m 5.77,0 -8.65,5 0,-10 8.65,5 z"
         style="fill-rule:evenodd;stroke:#000000;stroke-width:1pt;marker-start:none"
         transform="scale(-0.8,-0.8)"
         inkscape:connector-curvature="0" />
    </marker>
    <marker
       inkscape:stockid="TriangleOutL"
       orient="auto"
       refY="0"
       refX="0"
       id="TriangleOutL"
       style="overflow:visible">
      <path
         id="path3235"
         d="m 5.77,0 -8.65,5 0,-10 8.65,5 z"
         style="fill-rule:evenodd;stroke:#000000;stroke-width:1pt;marker-start:none"
         transform="scale(0.8,0.8)"
         inkscape:connector-curvature="0" />
    </marker>
    <marker
       orient="auto"
       markerHeight="3"
       markerWidth="4"
       markerUnits="strokeWidth"
       refY="5"
       refX="10"
       viewBox="0 0 10 10"
       id="ArrowStart">
      <path
         id="path3458"
         d="M 10,0 0,5 10,10 z"
         inkscape:connector-curvature="0" />
    </marker>
    <marker
       orient="auto"
       markerHeight="3"
       markerWidth="4"
       markerUnits="strokeWidth"
       refY="5"
       refX="0"
       viewBox="0 0 10 10"
       id="ArrowEnd">
      <path
         id="path3455"
         d="M 0,0 10,5 0,10 z"
         inkscape:connector-curvature="0" />
    </marker>
  </defs>
  <sodipodi:namedview
     id="base"
     pagecolor="#ffffff"
     bordercolor="#666666"
     borderopacity="1.0"
     gridtolerance="10000"
     guidetolerance="10"
     objecttolerance="10"
     inkscape:pageopacity="0.0"
     inkscape:pageshadow="2"
     inkscape:zoom="0.98994949"
     inkscape:cx="507.87464"
     inkscape:cy="123.32382"
     inkscape:document-units="px"
     inkscape:current-layer="layer1"
     inkscape:window-width="1272"
     inkscape:window-height="746"
     inkscape:window-x="4"
     inkscape:window-y="0"
     showgrid="false"
     fit-margin-top="0"
     fit-margin-left="0"
     fit-margin-right="0"
     fit-margin-bottom="0"
     inkscape:window-maximized="0" />
  <metadata
     id="metadata7">
    <rdf:RDF>
      <cc:Work
         rdf:about="">
        <dc:format>image/svg+xml</dc:format>
        <dc:type
           rdf:resource="http://purl.org/dc/dcmitype/StillImage" />
      </cc:Work>
    </rdf:RDF>
  </metadata>
  <g
     inkscape:label="Layer 1"
     inkscape:groupmode="layer"
     id="layer1"
     transform="translate(-19.753054,-6.2058239)">
    <path
       style="fill:none;stroke:#000000;stroke-width:1.08465934px;stroke-linecap:butt;stroke-linejoin:miter;stroke-opacity:1;marker-start:url(#TriangleInL);marker-end:none"
       d="m 70.899758,22.897399 c 0,375.853771 0,375.853771 0,375.853771"
       id="path2160"
       inkscape:connector-curvature="0" />
    <path
       style="fill:none;stroke:#000000;stroke-width:0.81399167px;stroke-linecap:butt;stroke-linejoin:miter;stroke-opacity:1;marker-start:none;marker-end:url(#TriangleOutL)"
       d="m 49.846078,363.15389 c 430.158692,0 430.158692,0 430.158692,0"
       id="path2162"
       inkscape:connector-curvature="0" />
    <text
       xml:space="preserve"
       style="font-size:16px;font-style:normal;font-weight:normal;writing-mode:lr-tb;fill:#000000;fill-opacity:1;stroke:none;font-family:Monospace"
       x="480.2641"
       y="382.63101"
       id="text3334"><tspan
         sodipodi:role="line"
         id="tspan3336"
         x="480.2641"
         y="382.63101">t</tspan></text>
    <path
       style="fill:none;stroke:#000000;stroke-width:1px;stroke-linecap:butt;stroke-linejoin:miter;stroke-opacity:1"
       d="m 57.262698,300.8087 c 27.27412,0 27.27412,0 27.27412,0"
       id="path3338"
       inkscape:connector-curvature="0" />
    <path
       style="fill:none;stroke:#000000;stroke-width:1px;stroke-linecap:butt;stroke-linejoin:miter;stroke-opacity:1"
       d="m 57.262698,229.23219 c 27.27412,0 27.27412,0 27.27412,0"
       id="path3342"
       inkscape:connector-curvature="0" />
    <path
       style="fill:none;stroke:#000000;stroke-width:1px;stroke-linecap:butt;stroke-linejoin:miter;stroke-opacity:1"
       d="m 57.262698,157.65569 c 27.27412,0 27.27412,0 27.27412,0"
       id="path3346"
       inkscape:connector-curvature="0" />
    <path
       style="fill:none;stroke:#000000;stroke-width:1px;stroke-linecap:butt;stroke-linejoin:miter;stroke-opacity:1"
       d="m 57.262698,86.079103 c 27.27412,0 27.27412,0 27.27412,0"
       id="path3350"
       inkscape:connector-curvature="0" />
    <path
       style="fill:none;stroke:#000000;stroke-width:1.31912947px;stroke-linecap:butt;stroke-linejoin:miter;stroke-opacity:1;marker-start:url(#Arrow2Mstart);marker-end:url(#Arrow2Mend)"
       d="m 47.918778,157.25658 c 0,70.9316 0,70.9316 0,70.9316"
       id="path3372"
       inkscape:connector-curvature="0" />
    <text
       xml:space="preserve"
       style="font-size:16px;font-style:normal;font-weight:normal;writing-mode:lr-tb;fill:#000000;fill-opacity:1;stroke:none;font-family:Monospace"
       x="18.182741"
       y="198.60056"
       id="text3388"><tspan
         sodipodi:role="line"
         id="tspan3390"
         x="18.182741"
         y="198.60056"
         style="font-family:Monospace"><tspan
   style="font-family:Symbol"
   id="tspan3392">D</tspan>q</tspan></text>
    <text
       xml:space="preserve"
       style="font-size:16px;font-style:normal;font-weight:normal;writing-mode:lr-tb;fill:#000000;fill-opacity:1;stroke:none;font-family:OpenSymbol"
       x="20.203051"
       y="304.8493"
       id="text3400"><tspan
         sodipodi:role="line"
         id="tspan3402"
         x="20.203051"
         y="304.8493">q(0)</tspan></text>
    <g
       id="g3410"
       transform="translate(-34.345182,-49.497475)">
      <path
         id="path3404"
         d="m 96.974644,312.93052 c 16.162436,16.16244 16.162436,16.16244 16.162436,16.16244"
         style="fill:#000000;fill-opacity:1;fill-rule:evenodd;stroke:#ff0000;stroke-width:1px;stroke-linecap:butt;stroke-linejoin:miter;stroke-opacity:1"
         inkscape:connector-curvature="0" />
      <path
         id="path3408"
         d="M 112.45499,312.33518 C 96.292564,328.49762 96.292564,328.49762 96.292564,328.49762"
         style="fill:#000000;fill-opacity:1;fill-rule:evenodd;stroke:#ff0000;stroke-width:1px;stroke-linecap:butt;stroke-linejoin:miter;stroke-opacity:1"
         inkscape:connector-curvature="0" />
    </g>
    <text
       xml:space="preserve"
       style="font-size:16px;font-style:normal;font-weight:normal;writing-mode:lr-tb;fill:#000000;fill-opacity:1;stroke:none;font-family:OpenSymbol"
       x="26.203051"
       y="264.62592"
       id="text3414"><tspan
         sodipodi:role="line"
         id="tspan3416"
         x="26.203051"
         y="264.62592">x(0)</tspan></text>
    <text
       xml:space="preserve"
       style="font-size:16px;font-style:normal;font-weight:normal;writing-mode:lr-tb;fill:#000000;fill-opacity:1;stroke:none;font-family:OpenSymbol"
       x="76.771591"
       y="383.64117"
       id="text3418"><tspan
         sodipodi:role="line"
         id="tspan3420"
         x="76.771591"
         y="383.64117">0</tspan></text>
    <g
       id="g3426"
       transform="translate(4,-2)">
      <text
         id="text3396"
         y="16.955824"
         x="44.446716"
         style="font-size:16px;font-style:normal;font-weight:normal;writing-mode:lr-tb;fill:#000000;fill-opacity:1;stroke:none;font-family:OpenSymbol"
         xml:space="preserve"><tspan
           y="16.955824"
           x="44.446716"
           id="tspan3398"
           sodipodi:role="line">x</tspan></text>
      <text
         id="text3422"
         y="28.067501"
         x="53.538086"
         style="font-size:16px;font-style:normal;font-weight:normal;writing-mode:lr-tb;fill:#000000;fill-opacity:1;stroke:none;font-family:OpenSymbol"
         xml:space="preserve"><tspan
           y="28.067501"
           x="53.538086"
           id="tspan3424"
           sodipodi:role="line">i</tspan></text>
    </g>
    <g
       id="g3460"
       transform="matrix(1.4261442,0,0,1.9807782,308.9543,23.828921)">
      <path
         id="path3462"
         d="M 7.22386,0.110046 C 7.22386,0.100037 7.22386,0 7.09486,0 c -0.15001,0 -1.096,0.0900269 -1.266,0.110046 -0.079,0.008973 -0.13899,0.05896 -0.13899,0.188965 0,0.119019 0.08999,0.119019 0.23899,0.119019 0.478,0 0.498,0.070007 0.498,0.169983 L 6.39687,0.787048 5.79987,3.14801 C 5.61986,2.78003 5.33086,2.51105 4.88286,2.51105 c -1.166,0 -2.401,1.46399 -2.401,2.919 0,0.93598 0.548,1.594 1.32499,1.594 0.19901,0 0.69701,-0.04004 1.29502,-0.74805 0.07998,0.41901 0.429,0.74805 0.907,0.74805 0.34799,0 0.578,-0.23004 0.73699,-0.54804 0.169,-0.35901 0.299,-0.96698 0.299,-0.987 0,-0.099 -0.09,-0.099 -0.11999,-0.099 -0.099,0 -0.10901,0.04004 -0.13901,0.17902 -0.16899,0.64801 -0.349,1.23499 -0.75701,1.23499 -0.26899,0 -0.29899,-0.25898 -0.29899,-0.45801 0,-0.23902 0.02,-0.30896 0.06,-0.47797 l 1.434,-5.757994 z M 5.15186,5.72803 C 5.10187,5.90802 5.10187,5.92804 4.95287,6.09705 4.51385,6.64502 4.10587,6.80402 3.82686,6.80402 c -0.498,0 -0.638,-0.54798 -0.638,-0.93598 0,-0.49804 0.319,-1.724 0.548,-2.182 0.30901,-0.58802 0.75701,-0.956 1.15601,-0.956 0.64799,0 0.78699,0.81696 0.78699,0.87598 0,0.06 -0.01999,0.11999 -0.03,0.16998 l -0.498,1.95203 z m 5.44904,-1.823 c 0.06,-0.25903 0.2889,-1.17499 0.986,-1.17499 0.05,0 0.289,0 0.498,0.12897 -0.279,0.04999 -0.478,0.29901 -0.478,0.53802 0,0.15998 0.11,0.349 0.379,0.349 0.2189,0 0.5379,-0.17901 0.5379,-0.578 0,-0.51801 -0.5879,-0.65698 -0.927,-0.65698 -0.5779,0 -0.9259,0.52795 -1.0459,0.75696 -0.249,-0.65796 -0.78705,-0.75696 -1.07603,-0.75696 -1.03601,0 -1.60401,1.28497 -1.60401,1.53399 0,0.099 0.1,0.099 0.12,0.099 0.08,0 0.10901,-0.02002 0.129,-0.10901 0.339,-1.05603 0.99701,-1.30499 1.335,-1.30499 0.19001,0 0.538,0.08899 0.538,0.66699 0,0.30896 -0.16899,0.97699 -0.538,2.37098 -0.15899,0.61804 -0.50801,1.03601 -0.94599,1.03601 -0.06,0 -0.28901,0 -0.49801,-0.12897 0.249,-0.05005 0.46801,-0.25903 0.46801,-0.53803 0,-0.26898 -0.21901,-0.349 -0.36901,-0.349 -0.29899,0 -0.548,0.25898 -0.548,0.57801 0,0.45801 0.49901,0.65802 0.937,0.65802 0.65701,0 1.016,-0.698 1.046,-0.758 0.12,0.36896 0.47804,0.758 1.07604,0.758 1.026,0 1.594,-1.28601 1.594,-1.53504 0,-0.099 -0.09,-0.099 -0.12,-0.099 -0.089,0 -0.109,0.04004 -0.129,0.10901 -0.329,1.06598 -1.006,1.305 -1.325,1.305 -0.389,0 -0.548,-0.318 -0.548,-0.65699 0,-0.21899 0.06,-0.43902 0.169,-0.87701 l 0.339,-1.36499 z"
         style="fill:#000000;fill-rule:evenodd;stroke:none"
         inkscape:connector-curvature="0" />
      <path
         id="path3464"
         d="m 15.2259,4.04803 c 0,-0.11199 -0.084,-0.26501 -0.279,-0.26501 -0.189,0 -0.391,0.18103 -0.391,0.383 0,0.11901 0.091,0.26501 0.279,0.26501 0.2019,0 0.391,-0.19501 0.391,-0.383 z M 13.8029,7.591 c -0.028,0.09003 -0.063,0.17401 -0.063,0.292 0,0.328 0.279,0.59301 0.6629,0.59301 0.6971,0 1.0041,-0.96197 1.0041,-1.06701 0,-0.08997 -0.091,-0.08997 -0.112,-0.08997 -0.097,0 -0.104,0.04102 -0.132,0.11798 -0.1611,0.55799 -0.4671,0.844 -0.739,0.844 -0.14,0 -0.175,-0.09101 -0.175,-0.24396 0,-0.16101 0.049,-0.29303 0.112,-0.44605 0.07,-0.18896 0.146,-0.37695 0.2229,-0.55798 0.0631,-0.16797 0.3141,-0.802 0.3421,-0.88599 0.021,-0.07 0.041,-0.15301 0.041,-0.22302 0,-0.328 -0.278,-0.59302 -0.662,-0.59302 -0.69,0 -1.011,0.94806 -1.011,1.06702 0,0.091 0.097,0.091 0.1179,0.091 0.0981,0 0.1051,-0.03497 0.1261,-0.112 0.181,-0.59997 0.488,-0.85101 0.746,-0.85101 0.112,0 0.174,0.05603 0.174,0.24402 0,0.16101 -0.041,0.26501 -0.216,0.698 L 13.8029,7.591 z"
         style="fill:#000000;fill-rule:evenodd;stroke:none"
         inkscape:connector-curvature="0" />
      <path
         id="path3466"
         d="m 2.08586,11.163 14.19604,0"
         style="fill:none;stroke:#000000;stroke-width:0.398"
         inkscape:connector-curvature="0" />
      <path
         id="path3468"
         d="m 9.93185,13.685 c 0,-0.01 0,-0.11 -0.12999,-0.11 -0.149,0 -1.096,0.09 -1.26499,0.11 -0.08001,0.009 -0.14,0.059 -0.14,0.189 0,0.119 0.08999,0.119 0.23999,0.119 0.47801,0 0.498,0.07 0.498,0.17 l -0.03,0.199 -0.59799,2.361 c -0.179,-0.368 -0.46801,-0.638 -0.916,-0.638 -1.166,0 -2.401,1.465 -2.401,2.92 0,0.936 0.54699,1.594 1.32499,1.594 0.19901,0 0.69701,-0.04 1.295,-0.748 0.07899,0.419 0.42799,0.748 0.90601,0.748 0.349,0 0.57798,-0.23 0.73799,-0.548 0.169,-0.359 0.298,-0.967 0.298,-0.987 0,-0.099 -0.089,-0.099 -0.119,-0.099 -0.09999,0 -0.11,0.04 -0.14,0.179 -0.16899,0.6481 -0.34799,1.235 -0.757,1.235 -0.269,0 -0.299,-0.259 -0.299,-0.458 0,-0.239 0.02,-0.309 0.06,-0.478 l 1.43499,-5.758 z m -2.07299,5.618 c -0.049,0.18 -0.049,0.2001 -0.19899,0.369 -0.43801,0.548 -0.847,0.707 -1.12601,0.707 -0.498,0 -0.63699,-0.548 -0.63699,-0.936 0,-0.498 0.319,-1.724 0.54798,-2.182 0.30901,-0.588 0.75701,-0.9559 1.15502,-0.9559 0.64799,0 0.78699,0.8169 0.78699,0.8759 0,0.06 -0.019,0.12 -0.029,0.17 l -0.499,1.952 z m 4.17404,-2.799 0.937,0 c 0.199,0 0.299,0 0.299,-0.1989 0,-0.1101 -0.1,-0.1101 -0.279,-0.1101 l -0.877,0 c 0.3589,-1.415 0.408,-1.614 0.408,-1.674 0,-0.1689 -0.119,-0.269 -0.288,-0.269 -0.03,0 -0.309,0.01 -0.3991,0.359 l -0.3889,1.584 -0.936,0 c -0.199,0 -0.299,0 -0.299,0.189 0,0.12 0.08,0.12 0.279,0.12 l 0.877,0 c -0.718,2.829 -0.757,2.9991 -0.757,3.178 0,0.538 0.378,0.917 0.916,0.917 1.0159,0 1.584,-1.455 1.584,-1.535 0,-0.099 -0.079,-0.099 -0.119,-0.099 -0.09,0 -0.1001,0.03 -0.15,0.139 -0.4281,1.036 -0.956,1.275 -1.295,1.275 -0.209,0 -0.309,-0.129 -0.309,-0.458 0,-0.239 0.02,-0.309 0.06,-0.478 l 0.737,-2.939 z"
         style="fill:#000000;fill-rule:evenodd;stroke:none"
         inkscape:connector-curvature="0" />
      <path
         id="path3470"
         d="m 27.0928,10.399 c 0.1491,0 0.3391,0 0.3391,-0.199 0,-0.2 -0.19,-0.2 -0.329,-0.2 l -5.968,0 c -0.139,0 -0.329,0 -0.329,0.2 0,0.199 0.19,0.199 0.339,0.199 l 5.9479,0 z m 0.0101,1.932 c 0.139,0 0.329,0 0.329,-0.199 0,-0.199 -0.19,-0.199 -0.3391,-0.199 l -5.9479,0 c -0.149,0 -0.339,0 -0.339,0.199 0,0.199 0.19,0.199 0.329,0.199 l 5.968,0 z"
         style="fill:#000000;fill-rule:evenodd;stroke:none"
         inkscape:connector-curvature="0" />
      <path
         id="path3472"
         d="m 34.4199,9.67102 0.857,0 c 0.199,0 0.298,0 0.298,-0.19897 0,-0.10901 -0.099,-0.10901 -0.269,-0.10901 l -0.826,0 c 0.109,-0.57801 0.099,-0.55799 0.209,-1.13599 0.04,-0.20904 0.179,-0.91705 0.239,-1.03601 0.09,-0.18903 0.259,-0.33899 0.468,-0.33899 0.04,0 0.299,0 0.488,0.17896 -0.4381,0.04003 -0.538,0.38903 -0.538,0.53802 0,0.229 0.18,0.349 0.369,0.349 0.259,0 0.548,-0.21899 0.548,-0.59802 0,-0.45801 -0.458,-0.68701 -0.867,-0.68701 -0.339,0 -0.966,0.17901 -1.265,1.16503 -0.0601,0.20997 -0.0901,0.30896 -0.329,1.56501 l -0.687,0 c -0.19,0 -0.299,0 -0.299,0.18896 0,0.11902 0.089,0.11902 0.279,0.11902 l 0.6569,0 -0.7469,3.93598 c -0.179,0.966 -0.349,1.873 -0.867,1.873 -0.039,0 -0.289,0 -0.478,-0.18 0.458,-0.03 0.548,-0.388 0.548,-0.538 0,-0.229 -0.179,-0.348 -0.369,-0.348 -0.2591,0 -0.547,0.219 -0.547,0.597 0,0.449 0.438,0.688 0.846,0.688 0.548,0 0.947,-0.588 1.126,-0.967 0.319,-0.627 0.548,-1.833 0.558,-1.902 l 0.598,-3.15898 z"
         style="fill:#000000;fill-rule:evenodd;stroke:none"
         inkscape:connector-curvature="0" />
      <path
         id="path3474"
         d="m 40.0089,16.047 c 0,-0.029 0,-0.049 -0.17,-0.219 -1.245,-1.255 -1.564,-3.138 -1.564,-4.662 0,-1.73399 0.379,-3.46696 1.604,-4.71196 0.13,-0.11999 0.13,-0.14001 0.13,-0.17004 0,-0.06995 -0.04,-0.099 -0.1,-0.099 -0.1,0 -0.996,0.677 -1.584,1.94201 -0.5081,1.09601 -0.628,2.20199 -0.628,3.03899 0,0.777 0.11,1.982 0.658,3.108 0.598,1.226 1.454,1.873 1.554,1.873 0.06,0 0.1,-0.03 0.1,-0.1 z"
         style="fill:#000000;fill-rule:evenodd;stroke:none"
         inkscape:connector-curvature="0" />
      <path
         id="path3476"
         d="m 43.9158,10.648 c 0.0601,-0.259 0.289,-1.17595 0.9861,-1.17595 0.05,0 0.289,0 0.498,0.13 -0.279,0.04999 -0.478,0.29895 -0.478,0.53795 0,0.159 0.11,0.348 0.379,0.348 0.219,0 0.538,-0.179 0.538,-0.57699 0,-0.51898 -0.588,-0.65796 -0.9271,-0.65796 -0.578,0 -0.9259,0.52796 -1.0459,0.75695 -0.249,-0.65697 -0.787,-0.75695 -1.076,-0.75695 -1.036,0 -1.604,1.28495 -1.604,1.53395 0,0.1 0.1,0.1 0.12,0.1 0.0799,0 0.109,-0.02 0.129,-0.11 0.3389,-1.05599 0.997,-1.30495 1.335,-1.30495 0.19,0 0.5379,0.08996 0.5379,0.66795 0,0.309 -0.1689,0.976 -0.5379,2.371 -0.159,0.6171 -0.508,1.036 -0.946,1.036 -0.06,0 -0.289,0 -0.498,-0.1299 0.249,-0.0491 0.468,-0.2591 0.468,-0.5381 0,-0.269 -0.219,-0.348 -0.369,-0.348 -0.299,0 -0.5481,0.259 -0.5481,0.578 0,0.458 0.4991,0.6571 0.9371,0.6571 0.657,0 1.0159,-0.6971 1.0459,-0.7571 0.1201,0.368 0.4781,0.7571 1.0761,0.7571 1.026,0 1.594,-1.2851 1.594,-1.5341 0,-0.1 -0.09,-0.1 -0.12,-0.1 -0.0891,0 -0.109,0.04 -0.129,0.11 -0.329,1.066 -1.006,1.305 -1.325,1.305 -0.3891,0 -0.548,-0.319 -0.548,-0.658 0,-0.219 0.0599,-0.438 0.169,-0.876 l 0.3389,-1.365 z"
         style="fill:#000000;fill-rule:evenodd;stroke:none"
         inkscape:connector-curvature="0" />
      <path
         id="path3478"
         d="m 48.6169,10.7141 c 0,-0.1891 -0.014,-0.1961 -0.209,-0.1961 -0.446,0.44 -1.081,0.447 -1.3671,0.447 l 0,0.251 c 0.168,0 0.6281,0 1.0111,-0.196 l 0,3.557 c 0,0.23 0,0.321 -0.697,0.321 l -0.265,0 0,0.251 c 0.125,-0.007 0.983,-0.028 1.241,-0.028 0.217,0 1.095,0.021 1.2489,0.028 l 0,-0.251 -0.2649,0 c -0.698,0 -0.698,-0.091 -0.698,-0.321 l 0,-3.8629 z"
         style="fill:#000000;fill-rule:evenodd;stroke:none"
         inkscape:connector-curvature="0" />
      <path
         id="path3480"
         d="m 52.7729,13.647 c 0,-0.658 -0.2491,-1.047 -0.6371,-1.047 -0.3289,0 -0.5279,0.249 -0.5279,0.5281 0,0.2689 0.199,0.5279 0.5279,0.5279 0.1191,0 0.2491,-0.039 0.3481,-0.129 0.03,-0.02 0.0399,-0.03 0.05,-0.03 0.01,0 0.0199,0.01 0.0199,0.15 0,0.737 -0.3479,1.334 -0.677,1.663 -0.1099,0.11 -0.1099,0.13 -0.1099,0.16 0,0.069 0.0499,0.109 0.1,0.109 0.109,0 0.906,-0.767 0.906,-1.932 z"
         style="fill:#000000;fill-rule:evenodd;stroke:none"
         inkscape:connector-curvature="0" />
      <path
         id="path3482"
         d="m 57.0959,13.1281 c 0,-0.2881 -0.239,-0.5281 -0.528,-0.5281 -0.289,0 -0.528,0.24 -0.528,0.5281 0,0.289 0.239,0.5279 0.528,0.5279 0.289,0 0.528,-0.2389 0.528,-0.5279 z"
         style="fill:#000000;fill-rule:evenodd;stroke:none"
         inkscape:connector-curvature="0" />
      <path
         id="path3484"
         d="m 61.5139,13.1281 c 0,-0.2881 -0.239,-0.5281 -0.528,-0.5281 -0.289,0 -0.528,0.24 -0.528,0.5281 0,0.289 0.239,0.5279 0.528,0.5279 0.289,0 0.528,-0.2389 0.528,-0.5279 z"
         style="fill:#000000;fill-rule:evenodd;stroke:none"
         inkscape:connector-curvature="0" />
      <path
         id="path3486"
         d="m 65.9458,13.1281 c 0,-0.2881 -0.2389,-0.5281 -0.5279,-0.5281 -0.289,0 -0.5281,0.24 -0.5281,0.5281 0,0.289 0.2391,0.5279 0.5281,0.5279 0.289,0 0.5279,-0.2389 0.5279,-0.5279 z"
         style="fill:#000000;fill-rule:evenodd;stroke:none"
         inkscape:connector-curvature="0" />
      <path
         id="path3488"
         d="m 70.4879,13.647 c 0,-0.658 -0.249,-1.047 -0.637,-1.047 -0.329,0 -0.528,0.249 -0.528,0.5281 0,0.2689 0.199,0.5279 0.528,0.5279 0.119,0 0.249,-0.039 0.348,-0.129 0.03,-0.02 0.04,-0.03 0.05,-0.03 0.01,0 0.02,0.01 0.02,0.15 0,0.737 -0.348,1.334 -0.677,1.663 -0.11,0.11 -0.11,0.13 -0.11,0.16 0,0.069 0.05,0.109 0.1,0.109 0.109,0 0.906,-0.767 0.906,-1.932 z"
         style="fill:#000000;fill-rule:evenodd;stroke:none"
         inkscape:connector-curvature="0" />
      <path
         id="path3490"
         d="m 76.2109,10.648 c 0.06,-0.259 0.289,-1.17595 0.986,-1.17595 0.05,0 0.289,0 0.498,0.13 -0.278,0.04999 -0.478,0.29895 -0.478,0.53795 0,0.159 0.11,0.348 0.379,0.348 0.219,0 0.538,-0.179 0.538,-0.57699 0,-0.51898 -0.588,-0.65796 -0.927,-0.65796 -0.578,0 -0.926,0.52796 -1.046,0.75695 -0.2491,-0.65697 -0.787,-0.75695 -1.076,-0.75695 -1.036,0 -1.604,1.28495 -1.604,1.53395 0,0.1 0.1,0.1 0.12,0.1 0.08,0 0.109,-0.02 0.129,-0.11 0.339,-1.05599 0.997,-1.30495 1.335,-1.30495 0.19,0 0.538,0.08996 0.538,0.66795 0,0.309 -0.169,0.976 -0.538,2.371 -0.159,0.6171 -0.508,1.036 -0.946,1.036 -0.06,0 -0.2891,0 -0.498,-0.1299 0.249,-0.0491 0.468,-0.2591 0.468,-0.5381 0,-0.269 -0.219,-0.348 -0.369,-0.348 -0.299,0 -0.548,0.259 -0.548,0.578 0,0.458 0.499,0.6571 0.937,0.6571 0.657,0 1.016,-0.6971 1.046,-0.7571 0.12,0.368 0.478,0.7571 1.076,0.7571 1.026,0 1.594,-1.2851 1.594,-1.5341 0,-0.1 -0.0901,-0.1 -0.1201,-0.1 -0.0889,0 -0.1089,0.04 -0.1289,0.11 -0.329,1.066 -1.006,1.305 -1.325,1.305 -0.389,0 -0.548,-0.319 -0.548,-0.658 0,-0.219 0.06,-0.438 0.169,-0.876 l 0.339,-1.365 z"
         style="fill:#000000;fill-rule:evenodd;stroke:none"
         inkscape:connector-curvature="0" />
      <path
         id="path3492"
         d="m 80.8428,10.79 c 0,-0.111 -0.0839,-0.265 -0.2789,-0.265 -0.188,0 -0.39,0.182 -0.39,0.384 0,0.118 0.09,0.265 0.278,0.265 0.203,0 0.3909,-0.195 0.3909,-0.384 z m -1.4229,3.543 c -0.028,0.091 -0.062,0.174 -0.062,0.293 0,0.328 0.279,0.593 0.662,0.593 0.6979,0 1.0039,-0.963 1.0039,-1.067 0,-0.091 -0.0899,-0.091 -0.1109,-0.091 -0.098,0 -0.1051,0.042 -0.133,0.1191 -0.16,0.5579 -0.467,0.8429 -0.7391,0.8429 -0.1389,0 -0.1739,-0.09 -0.1739,-0.2439 0,-0.1601 0.048,-0.2931 0.111,-0.4461 0.07,-0.188 0.147,-0.377 0.223,-0.558 0.063,-0.167 0.3139,-0.802 0.342,-0.885 0.021,-0.07 0.042,-0.154 0.042,-0.224 0,-0.3269 -0.279,-0.592 -0.663,-0.592 -0.69,0 -1.011,0.948 -1.011,1.0671 0,0.0899 0.098,0.0899 0.119,0.0899 0.0969,0 0.104,-0.035 0.125,-0.111 0.182,-0.6 0.489,-0.851 0.747,-0.851 0.111,0 0.174,0.056 0.174,0.244 0,0.16 -0.042,0.265 -0.2161,0.697 l -0.4399,1.123 z"
         style="fill:#000000;fill-rule:evenodd;stroke:none"
         inkscape:connector-curvature="0" />
      <path
         id="path3494"
         d="m 83.9209,13.647 c 0,-0.658 -0.249,-1.047 -0.638,-1.047 -0.3281,0 -0.528,0.249 -0.528,0.5281 0,0.2689 0.1999,0.5279 0.528,0.5279 0.1199,0 0.249,-0.039 0.349,-0.129 0.0299,-0.02 0.04,-0.03 0.05,-0.03 0.0099,0 0.02,0.01 0.02,0.15 0,0.737 -0.349,1.334 -0.6781,1.663 -0.1089,0.11 -0.1089,0.13 -0.1089,0.16 0,0.069 0.05,0.109 0.099,0.109 0.11,0 0.907,-0.767 0.907,-1.932 z"
         style="fill:#000000;fill-rule:evenodd;stroke:none"
         inkscape:connector-curvature="0" />
      <path
         id="path3496"
         d="m 88.2439,13.1281 c 0,-0.2881 -0.239,-0.5281 -0.528,-0.5281 -0.289,0 -0.528,0.24 -0.528,0.5281 0,0.289 0.239,0.5279 0.528,0.5279 0.289,0 0.528,-0.2389 0.528,-0.5279 z"
         style="fill:#000000;fill-rule:evenodd;stroke:none"
         inkscape:connector-curvature="0" />
      <path
         id="path3498"
         d="m 92.6609,13.1281 c 0,-0.2881 -0.239,-0.5281 -0.528,-0.5281 -0.289,0 -0.528,0.24 -0.528,0.5281 0,0.289 0.239,0.5279 0.528,0.5279 0.289,0 0.528,-0.2389 0.528,-0.5279 z"
         style="fill:#000000;fill-rule:evenodd;stroke:none"
         inkscape:connector-curvature="0" />
      <path
         id="path3500"
         d="m 97.0939,13.1281 c 0,-0.2881 -0.239,-0.5281 -0.528,-0.5281 -0.289,0 -0.528,0.24 -0.528,0.5281 0,0.289 0.239,0.5279 0.528,0.5279 0.289,0 0.528,-0.2389 0.528,-0.5279 z"
         style="fill:#000000;fill-rule:evenodd;stroke:none"
         inkscape:connector-curvature="0" />
      <path
         id="path3502"
         d="m 101.636,13.647 c 0,-0.658 -0.249,-1.047 -0.638,-1.047 -0.328,0 -0.528,0.249 -0.528,0.5281 0,0.2689 0.2,0.5279 0.528,0.5279 0.12,0 0.249,-0.039 0.349,-0.129 0.03,-0.02 0.04,-0.03 0.05,-0.03 0.01,0 0.02,0.01 0.02,0.15 0,0.737 -0.349,1.334 -0.678,1.663 -0.109,0.11 -0.109,0.13 -0.109,0.16 0,0.069 0.05,0.109 0.099,0.109 0.11,0 0.907,-0.767 0.907,-1.932 z"
         style="fill:#000000;fill-rule:evenodd;stroke:none"
         inkscape:connector-curvature="0" />
      <path
         id="path3504"
         d="m 107.366,10.648 c 0.06,-0.259 0.289,-1.17595 0.986,-1.17595 0.05,0 0.289,0 0.498,0.13 -0.278,0.04999 -0.478,0.29895 -0.478,0.53795 0,0.159 0.11,0.348 0.379,0.348 0.219,0 0.538,-0.179 0.538,-0.57699 0,-0.51898 -0.588,-0.65796 -0.927,-0.65796 -0.578,0 -0.926,0.52796 -1.046,0.75695 -0.249,-0.65697 -0.787,-0.75695 -1.076,-0.75695 -1.036,0 -1.604,1.28495 -1.604,1.53395 0,0.1 0.1,0.1 0.12,0.1 0.08,0 0.109,-0.02 0.129,-0.11 0.339,-1.05599 0.997,-1.30495 1.335,-1.30495 0.19,0 0.538,0.08996 0.538,0.66795 0,0.309 -0.169,0.976 -0.538,2.371 -0.159,0.6171 -0.508,1.036 -0.946,1.036 -0.06,0 -0.289,0 -0.498,-0.1299 0.249,-0.0491 0.468,-0.2591 0.468,-0.5381 0,-0.269 -0.219,-0.348 -0.369,-0.348 -0.299,0 -0.548,0.259 -0.548,0.578 0,0.458 0.499,0.6571 0.937,0.6571 0.657,0 1.016,-0.6971 1.046,-0.7571 0.12,0.368 0.478,0.7571 1.076,0.7571 1.026,0 1.594,-1.2851 1.594,-1.5341 0,-0.1 -0.09,-0.1 -0.12,-0.1 -0.089,0 -0.109,0.04 -0.129,0.11 -0.329,1.066 -1.006,1.305 -1.325,1.305 -0.389,0 -0.548,-0.319 -0.548,-0.658 0,-0.219 0.06,-0.438 0.169,-0.876 l 0.339,-1.365 z"
         style="fill:#000000;fill-rule:evenodd;stroke:none"
         inkscape:connector-curvature="0" />
      <path
         id="path3506"
         d="m 110.582,14.71 c -0.028,0.09 -0.07,0.265 -0.07,0.286 0,0.153 0.126,0.223 0.237,0.223 0.126,0 0.237,-0.0909 0.272,-0.154 0.035,-0.0619 0.091,-0.2859 0.126,-0.432 0.035,-0.133 0.111,-0.4529 0.153,-0.628 0.042,-0.1529 0.084,-0.307 0.119,-0.467 0.076,-0.286 0.09,-0.342 0.293,-0.628 0.195,-0.279 0.523,-0.641 1.046,-0.641 0.404,0 0.411,0.355 0.411,0.488 0,0.418 -0.3,1.193 -0.411,1.485 -0.077,0.196 -0.105,0.258 -0.105,0.377 0,0.37 0.307,0.6 0.663,0.6 0.697,0 1.004,-0.963 1.004,-1.067 0,-0.091 -0.091,-0.091 -0.112,-0.091 -0.097,0 -0.104,0.042 -0.132,0.1191 -0.161,0.5579 -0.461,0.8429 -0.74,0.8429 -0.146,0 -0.174,-0.097 -0.174,-0.2439 0,-0.1601 0.035,-0.2511 0.161,-0.5641 0.083,-0.217 0.369,-0.956 0.369,-1.346 0,-0.677 -0.537,-0.795 -0.906,-0.795 -0.579,0 -0.97,0.355 -1.179,0.634 -0.049,-0.4809 -0.46,-0.634 -0.746,-0.634 -0.3,0 -0.46,0.216 -0.551,0.376 -0.154,0.258 -0.251,0.656 -0.251,0.6911 0,0.0899 0.097,0.0899 0.118,0.0899 0.098,0 0.105,-0.021 0.154,-0.209 0.104,-0.411 0.237,-0.753 0.509,-0.753 0.181,0 0.23,0.153 0.23,0.342 0,0.132 -0.063,0.39 -0.112,0.578 -0.048,0.1891 -0.118,0.475 -0.153,0.628 l -0.223,0.893 z"
         style="fill:#000000;fill-rule:evenodd;stroke:none"
         inkscape:connector-curvature="0" />
      <path
         id="path3508"
         d="m 118.033,11.166 c 0,-0.777 -0.11,-1.98296 -0.658,-3.10796 -0.598,-1.22601 -1.454,-1.87304 -1.554,-1.87304 -0.06,0 -0.1,0.039 -0.1,0.099 0,0.03003 0,0.05005 0.19,0.229 0.976,0.987 1.544,2.57105 1.544,4.653 0,1.703 -0.369,3.457 -1.604,4.7121 -0.13,0.1199 -0.13,0.1399 -0.13,0.1689 0,0.06 0.04,0.1 0.1,0.1 0.1,0 0.996,-0.677 1.584,-1.943 0.508,-1.095 0.628,-2.2009 0.628,-3.038 z"
         style="fill:#000000;fill-rule:evenodd;stroke:none"
         inkscape:connector-curvature="0" />
    </g>
    <path
       style="fill:none;stroke:#000000;stroke-width:1;stroke-linecap:butt;stroke-linejoin:miter;stroke-miterlimit:4;stroke-opacity:1;stroke-dasharray:1, 2;stroke-dashoffset:0"
       d="m 70.710678,228.07771 c 411.132082,0 411.132082,0 411.132082,0"
       id="path3542"
       inkscape:connector-curvature="0" />
    <path
       style="fill:none;stroke:#000000;stroke-width:1px;stroke-linecap:butt;stroke-linejoin:miter;stroke-opacity:1;marker-end:url(#TriangleOutL)"
       d="M 376.7869,62.412689 C 178.797,128.0726 160.61425,272.52442 160.61425,272.52442"
       id="path3546"
       inkscape:connector-curvature="0" />
    <path
       style="fill:none;stroke:#000000;stroke-width:1;stroke-linecap:butt;stroke-linejoin:miter;stroke-miterlimit:4;stroke-opacity:1;stroke-dasharray:1, 2;stroke-dashoffset:0;marker-start:none;marker-end:url(#TriangleOutL)"
       d="m 367.69553,226.0574 c 0,135.36044 0,135.36044 0,135.36044"
       id="path3548"
       inkscape:connector-curvature="0" />
    <path
       style="fill:none;stroke:#000000;stroke-width:1px;stroke-linecap:butt;stroke-linejoin:miter;stroke-opacity:1"
       d="M 367.69553,227.06755 C 478.81231,333.13357 478.81231,333.13357 478.81231,333.13357"
       id="path3239"
       inkscape:connector-curvature="0" />
    <path
       style="fill:none;stroke:#000000;stroke-width:1px;stroke-linecap:butt;stroke-linejoin:miter;stroke-opacity:1;marker-end:url(#TriangleOutL)"
       d="m 445.47727,62.412685 c 83.84266,89.903575 -8.08122,222.233555 -8.08122,222.233555"
       id="path3241"
       inkscape:connector-curvature="0" />
    <g
       id="g3324"
       transform="translate(0.220803,-1.0304559)">
      <path
         id="path3320"
         d="M 70.710678,299.79853 C 369.71583,228.0777 367.69553,229.08786 367.69553,229.08786"
         style="fill:none;stroke:#000000;stroke-width:1px;stroke-linecap:butt;stroke-linejoin:miter;stroke-opacity:1"
         inkscape:connector-curvature="0" />
      <path
         id="path3322"
         d="M 370.72599,227.06755 C 493.9646,198.78328 493.9646,198.78328 493.9646,198.78328"
         style="fill:none;stroke:#000000;stroke-width:1;stroke-linecap:butt;stroke-linejoin:miter;stroke-miterlimit:4;stroke-opacity:1;stroke-dasharray:1, 2;stroke-dashoffset:0"
         inkscape:connector-curvature="0" />
    </g>
    <path
       style="fill:none;stroke:#000000;stroke-width:1;stroke-linecap:butt;stroke-linejoin:miter;stroke-miterlimit:4;stroke-opacity:1;stroke-dasharray:1, 2;stroke-dashoffset:0"
       d="m 72.22591,300.48381 c 411.13209,0 411.13209,0 411.13209,0"
       id="path3427"
       inkscape:connector-curvature="0" />
    <path
       style="fill:none;stroke:#000000;stroke-width:1;stroke-linecap:butt;stroke-linejoin:miter;stroke-miterlimit:4;stroke-opacity:1;stroke-dasharray:1, 2;stroke-dashoffset:0;marker-start:none;marker-end:url(#TriangleOutL)"
       d="m 444.46712,299.79853 c 0,62.62946 0,62.62946 0,62.62946"
       id="path3429"
       inkscape:connector-curvature="0" />
  </g>
</svg>
